<?xml version="1.0" standalone="no"?>
<!DOCTYPE svg PUBLIC "-//W3C//DTD SVG 20010904//EN"
 "http://www.w3.org/TR/2001/REC-SVG-20010904/DTD/svg10.dtd">
<svg version="1.0" xmlns="http://www.w3.org/2000/svg"
 width="100.000000pt" height="106.000000pt" viewBox="0 0 100.000000 106.000000"
 preserveAspectRatio="xMidYMid meet">
<metadata>
Created by potrace 1.16, written by Peter Selinger 2001-2019
</metadata>
<g transform="translate(0.000000,106.000000) scale(0.100000,-0.100000)"
fill="#000000" stroke="none">
<path d="M410 975 l0 -85 -30 0 -30 0 0 -120 0 -120 -25 0 c-21 0 -25 5 -25
30 l0 30 -65 0 -65 0 0 -90 c0 -89 0 -90 -25 -90 -21 0 -25 5 -25 30 l0 30
-60 0 -60 0 0 -295 0 -295 90 0 c89 0 90 0 90 25 0 21 5 25 30 25 27 0 30 3
30 30 0 25 4 30 25 30 21 0 25 -5 25 -30 l0 -30 60 0 c57 0 60 -1 60 -25 0
-25 1 -25 90 -25 89 0 90 0 90 25 0 24 3 25 60 25 l60 0 0 30 c0 25 4 30 25
30 21 0 25 -5 25 -30 0 -27 3 -30 30 -30 25 0 30 -4 30 -25 0 -25 1 -25 90
-25 l90 0 0 295 0 295 -60 0 -60 0 0 -30 c0 -25 -4 -30 -25 -30 -25 0 -25 1
-25 90 l0 90 -65 0 -65 0 0 -30 c0 -25 -4 -30 -25 -30 l-25 0 0 120 0 120 -30
0 -30 0 0 85 0 85 -90 0 -90 0 0 -85z m120 -65 l0 -90 30 0 30 0 0 -115 0
-115 30 0 30 0 0 -60 0 -60 30 0 c27 0 30 3 30 31 0 27 3 30 28 27 21 -2 28
-9 30 -30 3 -25 0 -28 -27 -28 -28 0 -31 -3 -31 -30 0 -27 3 -30 30 -30 27 0
30 -3 30 -30 0 -25 4 -30 24 -30 19 0 25 -6 28 -27 2 -22 9 -29 31 -31 27 -3
27 -3 27 57 l0 61 30 0 30 0 0 -175 0 -175 -30 0 c-27 0 -30 3 -30 30 0 30 -1
30 -55 30 l-54 0 -3 58 -3 57 -57 -3 -58 -3 0 30 c0 28 -3 31 -30 31 -30 0
-30 -1 -30 -55 0 -54 0 -55 -30 -55 l-30 0 0 -60 0 -60 -30 0 -30 0 0 60 0 60
-30 0 c-30 0 -30 1 -30 55 0 52 -2 55 -24 55 -19 0 -25 -6 -28 -28 -3 -26 -4
-27 -60 -24 l-58 2 0 -30 c0 -27 -3 -30 -30 -30 -27 0 -30 -3 -30 -30 0 -27
-3 -30 -30 -30 -27 0 -30 -3 -30 -30 0 -27 -3 -30 -30 -30 l-30 0 0 175 0 175
30 0 30 0 0 -61 c0 -60 0 -60 27 -57 22 2 29 9 31 30 3 21 9 27 30 30 21 2 28
9 30 30 3 21 9 27 30 30 21 2 28 9 30 31 3 24 0 27 -27 27 -28 0 -31 3 -31 30
0 27 3 30 30 30 27 0 30 -3 30 -30 0 -25 4 -30 25 -30 22 0 24 4 27 58 3 54 4
57 31 60 l27 3 0 115 0 114 30 0 30 0 0 90 0 90 30 0 30 0 0 -90z"/>
</g>
</svg>
